<?xml version="1.0" encoding="iso-8859-1"?>
<!-- Generator: Adobe Illustrator 17.1.0, SVG Export Plug-In . SVG Version: 6.00 Build 0)  -->
<!DOCTYPE svg PUBLIC "-//W3C//DTD SVG 1.0//EN" "http://www.w3.org/TR/2001/REC-SVG-20010904/DTD/svg10.dtd">
<svg version="1.0" xmlns="http://www.w3.org/2000/svg" xmlns:xlink="http://www.w3.org/1999/xlink" x="0px" y="0px" width="110px"
	 height="110px" viewBox="0 0 110 110" style="enable-background:new 0 0 110 110;" xml:space="preserve">
<g id="Artboard" style="display:none;">
	
		<rect x="-1203.5" y="-42.5" style="display:inline;fill:#808080;stroke:#000000;stroke-miterlimit:10;" width="1344" height="335"/>
</g>
<g id="R-Multicolor" style="display:none;">
	<circle style="display:inline;fill:#E04F5F;" cx="55" cy="55" r="55"/>
	<g style="display:inline;">
		<g>
			<path style="fill:#F3B607;" d="M83,85c0,1.105-0.895,2-2,2H61c-1.105,0-2-0.895-2-2V41c0-1.105,0.895-2,2-2h20
				c1.105,0,2,0.895,2,2V85z"/>
		</g>
		<g>
			<path style="fill:#FACB1B;" d="M71.001,39H61c-1.105,0-2,0.896-2,2v44c0,1.104,0.895,2,2,2h10V39z"/>
		</g>
		<g>
			<path style="fill:#FBE158;" d="M62,58.5c0,2.485,2.015,4.5,4.5,4.5s4.5-2.015,4.5-4.5v-10c0-0.828,0.672-1.5,1.5-1.5
				s1.5,0.672,1.5,1.5v4c0,1.381,1.119,2.5,2.5,2.5s2.5-1.119,2.5-2.5V39H61c-1.104,0-2,0.896-2,2v15h3V58.5z"/>
		</g>
		<g>
			<path style="fill:#FBEC9A;" d="M71.001,39H61c-1.104,0-2,0.896-2,2v15h3v2.5c0,2.485,2.015,4.5,4.5,4.5s4.5-2.015,4.5-4.5v-10
				c0-0.002,0-0.004,0-0.006V39z"/>
		</g>
		<g>
			<path style="fill:#059BBF;" d="M43,57c0-1.105,0.895-2,2-2h16c1.105,0,2,0.895,2,2v28c0,1.105-0.895,2-2,2H45
				c-1.105,0-2-0.895-2-2V57z"/>
		</g>
		<g>
			<path style="fill:#21B2D1;" d="M53.001,55h-8c-1.105,0-2,0.896-2,2v28c0,1.104,0.895,2,2,2h8V55z"/>
		</g>
		<g>
			<path style="fill:#40C9E7;" d="M51,61c0-1.104,0.896-2,2-2s2,0.896,2,2s0.896,2,2,2s2-0.896,2-2v-6H45c-1.104,0-2,0.896-2,2v13h8
				V61z"/>
		</g>
		<g>
			<path style="fill:#FBE158;" d="M77.429,33.286c0,3.156-2.558,5.714-5.714,5.714s-5.714-2.558-5.714-5.714
				c0-3.429,4.571-5.714,3.429-10.286C76.287,25.286,77.429,30.13,77.429,33.286z"/>
		</g>
		<g>
			<path style="fill:#F37A10;" d="M74.572,36.143c0,1.578-1.279,2.857-2.857,2.857s-2.857-1.279-2.857-2.857
				c0-1.714,2.286-2.857,1.714-5.143C74.001,32.143,74.572,34.565,74.572,36.143z"/>
		</g>
		<g>
			<path style="fill:#FBE158;" d="M56.001,51c0,2.209-1.791,4-4,4s-4-1.791-4-4c0-2.4,3.2-4,2.4-7.201
				C55.201,45.399,56.001,48.79,56.001,51z"/>
		</g>
		<g>
			<path style="fill:#F37A10;" d="M54.001,53c0,1.105-0.896,2-2,2s-2-0.896-2-2c0-1.2,1.6-2,1.2-3.6
				C53.601,50.2,54.001,51.895,54.001,53z"/>
		</g>
		<g>
			<path style="fill:#6FDAF1;" d="M53,55h-8c-1.104,0-2,0.896-2,2v14h8V61c0-1.104,0.896-2,2-2h0V55z"/>
		</g>
		<g>
			<g>
				<path style="fill:#F0F1F1;" d="M50.688,70.17c-1.035-2.236-3.907-3.192-6.908-2.513c-0.478-3.32-2.665-5.829-5.294-5.829
					c-2.693,0-4.919,2.634-5.322,6.074c-3.301-1.094-6.644-0.183-7.779,2.269c-1.199,2.591,0.508,5.949,3.824,7.693
					c-1.989,2.758-2.147,6.134-0.215,7.958c2.213,2.089,6.299,1.337,9.042-1.737c2.755,3.087,6.839,3.816,9.042,1.737
					c1.932-1.824,1.775-5.2-0.215-7.958C50.18,76.119,51.887,72.761,50.688,70.17z"/>
			</g>
			<g>
				<path style="fill:#FFFFFF;" d="M43.78,67.657c-0.478-3.32-2.665-5.829-5.294-5.829c-2.693,0-4.919,2.634-5.322,6.074
					c-3.301-1.094-6.644-0.183-7.779,2.269c-1.199,2.591,0.508,5.949,3.824,7.693c-1.701,2.359-2.057,5.166-0.919,7.071
					l17.479-17.48C45.125,67.445,44.457,67.504,43.78,67.657z"/>
			</g>
			<g>
				<circle style="fill:#FACB1B;" cx="38.485" cy="75.313" r="5.394"/>
			</g>
			<g>
				<path style="fill:#FBE158;" d="M38.485,69.919c-2.979,0-5.394,2.415-5.394,5.394c0,1.343,0.494,2.569,1.306,3.513l7.601-7.601
					C41.054,70.413,39.829,69.919,38.485,69.919z"/>
			</g>
		</g>
	</g>
</g>
<g id="Multicolor">
	<g>
		<g>
			<path style="fill:#F3B607;" d="M83,85c0,1.105-0.895,2-2,2H61c-1.105,0-2-0.895-2-2V41c0-1.105,0.895-2,2-2h20
				c1.105,0,2,0.895,2,2V85z"/>
		</g>
		<g>
			<path style="fill:#FACB1B;" d="M71.001,39H61c-1.105,0-2,0.896-2,2v44c0,1.104,0.895,2,2,2h10V39z"/>
		</g>
		<g>
			<path style="fill:#FBE158;" d="M62,58.5c0,2.485,2.015,4.5,4.5,4.5s4.5-2.015,4.5-4.5v-10c0-0.828,0.672-1.5,1.5-1.5
				s1.5,0.672,1.5,1.5v4c0,1.381,1.119,2.5,2.5,2.5s2.5-1.119,2.5-2.5V39H61c-1.104,0-2,0.896-2,2v15h3V58.5z"/>
		</g>
		<g>
			<path style="fill:#FBEC9A;" d="M71.001,39H61c-1.104,0-2,0.896-2,2v15h3v2.5c0,2.485,2.015,4.5,4.5,4.5s4.5-2.015,4.5-4.5v-10
				c0-0.002,0-0.004,0-0.006V39z"/>
		</g>
		<g>
			<path style="fill:#059BBF;" d="M43,57c0-1.105,0.895-2,2-2h16c1.105,0,2,0.895,2,2v28c0,1.105-0.895,2-2,2H45
				c-1.105,0-2-0.895-2-2V57z"/>
		</g>
		<g>
			<path style="fill:#21B2D1;" d="M53.001,55h-8c-1.105,0-2,0.896-2,2v28c0,1.104,0.895,2,2,2h8V55z"/>
		</g>
		<g>
			<path style="fill:#40C9E7;" d="M51,61c0-1.104,0.896-2,2-2s2,0.896,2,2s0.896,2,2,2s2-0.896,2-2v-6H45c-1.104,0-2,0.896-2,2v13h8
				V61z"/>
		</g>
		<g>
			<path style="fill:#FBE158;" d="M77.429,33.286c0,3.156-2.558,5.714-5.714,5.714s-5.714-2.558-5.714-5.714
				c0-3.429,4.571-5.714,3.429-10.286C76.287,25.286,77.429,30.13,77.429,33.286z"/>
		</g>
		<g>
			<path style="fill:#F37A10;" d="M74.572,36.143c0,1.578-1.279,2.857-2.857,2.857s-2.857-1.279-2.857-2.857
				c0-1.714,2.286-2.857,1.714-5.143C74.001,32.143,74.572,34.565,74.572,36.143z"/>
		</g>
		<g>
			<path style="fill:#FBE158;" d="M56.001,51c0,2.209-1.791,4-4,4s-4-1.791-4-4c0-2.4,3.2-4,2.4-7.201
				C55.201,45.399,56.001,48.79,56.001,51z"/>
		</g>
		<g>
			<path style="fill:#F37A10;" d="M54.001,53c0,1.105-0.896,2-2,2s-2-0.896-2-2c0-1.2,1.6-2,1.2-3.6
				C53.601,50.2,54.001,51.895,54.001,53z"/>
		</g>
		<g>
			<path style="fill:#6FDAF1;" d="M53,55h-8c-1.104,0-2,0.896-2,2v14h8V61c0-1.104,0.896-2,2-2h0V55z"/>
		</g>
		<g>
			<g>
				<path style="fill:#F0F1F1;" d="M50.688,70.17c-1.035-2.236-3.907-3.192-6.908-2.513c-0.478-3.32-2.665-5.829-5.294-5.829
					c-2.693,0-4.919,2.634-5.322,6.074c-3.301-1.094-6.644-0.183-7.779,2.269c-1.199,2.591,0.508,5.949,3.824,7.693
					c-1.989,2.758-2.147,6.134-0.215,7.958c2.213,2.089,6.299,1.337,9.042-1.737c2.755,3.087,6.839,3.816,9.042,1.737
					c1.932-1.824,1.775-5.2-0.215-7.958C50.18,76.119,51.887,72.761,50.688,70.17z"/>
			</g>
			<g>
				<path style="fill:#FFFFFF;" d="M43.78,67.657c-0.478-3.32-2.665-5.829-5.294-5.829c-2.693,0-4.919,2.634-5.322,6.074
					c-3.301-1.094-6.644-0.183-7.779,2.269c-1.199,2.591,0.508,5.949,3.824,7.693c-1.701,2.359-2.057,5.166-0.919,7.071
					l17.479-17.48C45.125,67.445,44.457,67.504,43.78,67.657z"/>
			</g>
			<g>
				<circle style="fill:#FACB1B;" cx="38.485" cy="75.313" r="5.394"/>
			</g>
			<g>
				<path style="fill:#FBE158;" d="M38.485,69.919c-2.979,0-5.394,2.415-5.394,5.394c0,1.343,0.494,2.569,1.306,3.513l7.601-7.601
					C41.054,70.413,39.829,69.919,38.485,69.919z"/>
			</g>
		</g>
	</g>
</g>
<g id="Blue" style="display:none;">
	<g style="display:inline;">
		<g>
			<path style="fill:#0081A1;" d="M83,85c0,1.104-0.896,2-2,2H61c-1.104,0-2-0.896-2-2V41c0-1.104,0.896-2,2-2h20
				c1.104,0,2,0.896,2,2V85z"/>
		</g>
		<g>
			<path style="fill:#009FC7;" d="M71.001,39H61c-1.104,0-2,0.896-2,2v44c0,1.104,0.896,2,2,2h10.001V39z"/>
		</g>
		<g>
			<path style="fill:#E1F5FA;" d="M62,58.5c0,2.485,2.015,4.5,4.5,4.5c2.485,0,4.5-2.015,4.5-4.5v-10c0-0.828,0.672-1.5,1.5-1.5
				c0.828,0,1.5,0.672,1.5,1.5v4c0,1.381,1.119,2.5,2.5,2.5c1.381,0,2.5-1.119,2.5-2.5V39H61c-1.104,0-2,0.896-2,2v15h3V58.5z"/>
		</g>
		<g>
			<path style="fill:#FFFFFF;" d="M71.001,39H61c-1.104,0-2,0.896-2,2v15h3v2.5c0,2.485,2.015,4.5,4.5,4.5
				c2.485,0,4.5-2.015,4.5-4.5v-10c0-0.002,0.001-0.004,0.001-0.006V39z"/>
		</g>
		<g>
			<path style="fill:#0F6175;" d="M43,57c0-1.104,0.896-2,2-2h16c1.104,0,2,0.896,2,2v28c0,1.104-0.896,2-2,2H45
				c-1.104,0-2-0.896-2-2V57z"/>
		</g>
		<g>
			<path style="fill:#33899E;" d="M53.001,55H45c-1.104,0-2,0.896-2,2v28c0,1.104,0.896,2,2,2h8.001V55z"/>
		</g>
		<g>
			<path style="fill:#E1F5FA;" d="M51,61c0-1.104,0.896-2,2-2s2,0.896,2,2s0.896,2,2,2s2-0.896,2-2v-6H45c-1.104,0-2,0.896-2,2v13h8
				V61z"/>
		</g>
		<g>
			<path style="fill:#FFFFFF;" d="M77.43,33.286c0,3.156-2.559,5.714-5.715,5.714c-3.156,0-5.714-2.558-5.714-5.714
				c0-3.428,4.571-5.714,3.429-10.286C76.286,25.286,77.43,30.13,77.43,33.286z"/>
		</g>
		<g>
			<path style="fill:#00B7E5;" d="M74.572,36.143c0,1.578-1.279,2.857-2.857,2.857c-1.578,0-2.857-1.279-2.857-2.857
				c0-1.714,2.286-2.858,1.715-5.143C74.001,32.143,74.572,34.565,74.572,36.143z"/>
		</g>
		<g>
			<path style="fill:#FFFFFF;" d="M56.001,51c0,2.209-1.791,4-4,4s-4-1.791-4-4c0-2.4,3.2-4,2.399-7.201
				C55.201,45.399,56.001,48.791,56.001,51z"/>
		</g>
		<g>
			<path style="fill:#00B7E5;" d="M54.001,53c0,1.104-0.896,2-2,2s-2-0.896-2-2c0-1.2,1.6-2,1.2-3.6
				C53.601,50.2,54.001,51.896,54.001,53z"/>
		</g>
		<g>
			<path style="fill:#FFFFFF;" d="M53,55h-8c-1.105,0-2,0.896-2,2v14h8V61c0-1.104,0.895-2,2-2l0,0V55z"/>
		</g>
		<g>
			<path style="fill:#E1F5FA;" d="M50.687,70.17c-1.035-2.236-3.906-3.192-6.908-2.514c-0.478-3.319-2.665-5.829-5.294-5.829
				c-2.693,0-4.919,2.634-5.322,6.074c-3.302-1.095-6.645-0.183-7.779,2.269c-1.199,2.59,0.508,5.949,3.824,7.693
				c-1.989,2.759-2.146,6.135-0.215,7.959c2.214,2.089,6.299,1.337,9.042-1.737c2.756,3.087,6.84,3.816,9.043,1.737
				c1.932-1.824,1.774-5.2-0.215-7.959C50.18,76.119,51.887,72.761,50.687,70.17z"/>
		</g>
		<g>
			<path style="fill:#FFFFFF;" d="M43.779,67.657c-0.478-3.319-2.665-5.829-5.294-5.829c-2.693,0-4.919,2.634-5.322,6.074
				c-3.302-1.094-6.645-0.183-7.779,2.269c-1.199,2.591,0.508,5.949,3.824,7.693c-1.701,2.358-2.058,5.166-0.919,7.071l17.479-17.48
				C45.124,67.445,44.457,67.504,43.779,67.657z"/>
		</g>
		<g>
			<circle style="fill:#009FC7;" cx="38.485" cy="75.313" r="5.394"/>
		</g>
		<g>
			<path style="fill:#00B7E5;" d="M38.485,69.919c-2.979,0-5.395,2.415-5.395,5.394c0,1.343,0.494,2.569,1.307,3.513l7.601-7.6
				C41.055,70.413,39.828,69.919,38.485,69.919z"/>
		</g>
	</g>
</g>
<g id="R-Blue" style="display:none;">
	<circle style="display:inline;fill:#81D2EB;" cx="55" cy="55" r="55"/>
	<g style="display:inline;">
		<g>
			<path style="fill:#0081A1;" d="M83,85c0,1.104-0.896,2-2,2H61c-1.104,0-2-0.896-2-2V41c0-1.104,0.896-2,2-2h20
				c1.104,0,2,0.896,2,2V85z"/>
		</g>
		<g>
			<path style="fill:#009FC7;" d="M71.001,39H61c-1.104,0-2,0.896-2,2v44c0,1.104,0.896,2,2,2h10.001V39z"/>
		</g>
		<g>
			<path style="fill:#E1F5FA;" d="M62,58.5c0,2.485,2.015,4.5,4.5,4.5c2.485,0,4.5-2.015,4.5-4.5v-10c0-0.828,0.672-1.5,1.5-1.5
				c0.828,0,1.5,0.672,1.5,1.5v4c0,1.381,1.119,2.5,2.5,2.5c1.381,0,2.5-1.119,2.5-2.5V39H61c-1.104,0-2,0.896-2,2v15h3V58.5z"/>
		</g>
		<g>
			<path style="fill:#FFFFFF;" d="M71.001,39H61c-1.104,0-2,0.896-2,2v15h3v2.5c0,2.485,2.015,4.5,4.5,4.5
				c2.485,0,4.5-2.015,4.5-4.5v-10c0-0.002,0.001-0.004,0.001-0.006V39z"/>
		</g>
		<g>
			<path style="fill:#0F6175;" d="M43,57c0-1.104,0.896-2,2-2h16c1.104,0,2,0.896,2,2v28c0,1.104-0.896,2-2,2H45
				c-1.104,0-2-0.896-2-2V57z"/>
		</g>
		<g>
			<path style="fill:#33899E;" d="M53.001,55H45c-1.104,0-2,0.896-2,2v28c0,1.104,0.896,2,2,2h8.001V55z"/>
		</g>
		<g>
			<path style="fill:#E1F5FA;" d="M51,61c0-1.104,0.896-2,2-2s2,0.896,2,2s0.896,2,2,2s2-0.896,2-2v-6H45c-1.104,0-2,0.896-2,2v13h8
				V61z"/>
		</g>
		<g>
			<path style="fill:#FFFFFF;" d="M77.43,33.286c0,3.156-2.559,5.714-5.715,5.714c-3.156,0-5.714-2.558-5.714-5.714
				c0-3.428,4.571-5.714,3.429-10.286C76.286,25.286,77.43,30.13,77.43,33.286z"/>
		</g>
		<g>
			<path style="fill:#00B7E5;" d="M74.572,36.143c0,1.578-1.279,2.857-2.857,2.857c-1.578,0-2.857-1.279-2.857-2.857
				c0-1.714,2.286-2.858,1.715-5.143C74.001,32.143,74.572,34.565,74.572,36.143z"/>
		</g>
		<g>
			<path style="fill:#FFFFFF;" d="M56.001,51c0,2.209-1.791,4-4,4s-4-1.791-4-4c0-2.4,3.2-4,2.399-7.201
				C55.201,45.399,56.001,48.79,56.001,51z"/>
		</g>
		<g>
			<path style="fill:#00B7E5;" d="M54.001,53c0,1.104-0.896,2-2,2s-2-0.896-2-2c0-1.2,1.6-2,1.2-3.6
				C53.601,50.2,54.001,51.895,54.001,53z"/>
		</g>
		<g>
			<path style="fill:#FFFFFF;" d="M53,55h-8c-1.105,0-2,0.896-2,2v14h8V61c0-1.104,0.895-2,2-2l0,0V55z"/>
		</g>
		<g>
			<path style="fill:#E1F5FA;" d="M50.687,70.17c-1.035-2.236-3.906-3.192-6.908-2.514c-0.478-3.319-2.665-5.829-5.294-5.829
				c-2.693,0-4.919,2.634-5.322,6.074c-3.302-1.095-6.645-0.183-7.779,2.269c-1.199,2.59,0.508,5.949,3.824,7.693
				c-1.989,2.759-2.146,6.135-0.215,7.959c2.214,2.089,6.299,1.337,9.042-1.737c2.756,3.087,6.84,3.816,9.043,1.737
				c1.932-1.824,1.774-5.2-0.215-7.959C50.18,76.119,51.887,72.761,50.687,70.17z"/>
		</g>
		<g>
			<path style="fill:#FFFFFF;" d="M43.779,67.657c-0.478-3.319-2.665-5.829-5.294-5.829c-2.693,0-4.919,2.634-5.322,6.074
				c-3.302-1.094-6.645-0.183-7.779,2.269c-1.199,2.591,0.508,5.949,3.824,7.693c-1.701,2.358-2.058,5.166-0.919,7.071l17.479-17.48
				C45.124,67.445,44.457,67.504,43.779,67.657z"/>
		</g>
		<g>
			<circle style="fill:#009FC7;" cx="38.485" cy="75.313" r="5.394"/>
		</g>
		<g>
			<path style="fill:#00B7E5;" d="M38.485,69.919c-2.979,0-5.395,2.415-5.395,5.394c0,1.343,0.494,2.569,1.307,3.513l7.601-7.6
				C41.055,70.413,39.828,69.919,38.485,69.919z"/>
		</g>
	</g>
</g>
<g id="Green" style="display:none;">
	<g style="display:inline;">
		<g>
			<path style="fill:#009687;" d="M83,84.999c0,1.104-0.896,2-2,2H61c-1.104,0-2-0.896-2-2v-44c0-1.104,0.896-2,2-2h20
				c1.104,0,2,0.896,2,2V84.999z"/>
		</g>
		<g>
			<path style="fill:#00B8A5;" d="M71.001,38.999H61c-1.104,0-2,0.896-2,2v44c0,1.104,0.896,2,2,2h10.001V38.999z"/>
		</g>
		<g>
			<path style="fill:#D7FCF9;" d="M62,58.499c0,2.485,2.015,4.5,4.5,4.5s4.5-2.015,4.5-4.5v-10c0-0.828,0.672-1.5,1.5-1.5
				s1.5,0.672,1.5,1.5v4c0,1.381,1.119,2.5,2.5,2.5s2.5-1.119,2.5-2.5v-13.5H61c-1.104,0-2,0.896-2,2v15h3V58.499z"/>
		</g>
		<g>
			<path style="fill:#FFFFFF;" d="M71.001,38.999H61c-1.104,0-2,0.896-2,2v15h3v2.5c0,2.485,2.015,4.5,4.5,4.5s4.5-2.015,4.5-4.5
				v-10c0-0.002,0.001-0.004,0.001-0.006V38.999z"/>
		</g>
		<g>
			<path style="fill:#14635B;" d="M43,56.999c0-1.104,0.896-2,2-2h16c1.104,0,2,0.896,2,2v28c0,1.104-0.896,2-2,2H45
				c-1.104,0-2-0.896-2-2V56.999z"/>
		</g>
		<g>
			<path style="fill:#3E948B;" d="M53.001,54.999H45c-1.104,0-2,0.896-2,2v28c0,1.104,0.896,2,2,2h8.001V54.999z"/>
		</g>
		<g>
			<path style="fill:#D7FCF9;" d="M51,60.999c0-1.104,0.896-2,2-2s2,0.896,2,2s0.896,2,2,2s2-0.896,2-2v-6H45c-1.104,0-2,0.896-2,2
				v13h8V60.999z"/>
		</g>
		<g>
			<path style="fill:#FFFFFF;" d="M77.43,33.285c0,3.156-2.559,5.714-5.715,5.714c-3.156,0-5.714-2.558-5.714-5.714
				c0-3.428,4.571-5.714,3.429-10.286C76.286,25.285,77.43,30.129,77.43,33.285z"/>
		</g>
		<g>
			<path style="fill:#00D6C1;" d="M74.572,36.142c0,1.578-1.279,2.857-2.858,2.857c-1.578,0-2.857-1.279-2.857-2.857
				c0-1.714,2.286-2.858,1.715-5.143C74.001,32.142,74.572,34.564,74.572,36.142z"/>
		</g>
		<g>
			<path style="fill:#FFFFFF;" d="M56.001,50.999c0,2.209-1.791,4-4,4s-4-1.791-4-4c0-2.4,3.2-4,2.399-7.201
				C55.201,45.398,56.001,48.789,56.001,50.999z"/>
		</g>
		<g>
			<path style="fill:#00D6C1;" d="M54.001,52.999c0,1.104-0.896,2-2,2s-2-0.896-2-2c0-1.2,1.6-2,1.2-3.6
				C53.601,50.199,54.001,51.894,54.001,52.999z"/>
		</g>
		<g>
			<path style="fill:#FFFFFF;" d="M53,54.999h-8c-1.105,0-2,0.896-2,2v14h8v-10c0-1.104,0.895-2,2-2l0,0V54.999z"/>
		</g>
		<g>
			<path style="fill:#D7FCF9;" d="M50.688,70.169c-1.035-2.236-3.906-3.192-6.908-2.514c-0.478-3.319-2.665-5.829-5.294-5.829
				c-2.693,0-4.919,2.634-5.322,6.074c-3.302-1.095-6.645-0.183-7.779,2.269c-1.199,2.59,0.508,5.949,3.824,7.693
				c-1.989,2.759-2.146,6.135-0.215,7.959c2.214,2.089,6.299,1.337,9.042-1.737c2.756,3.087,6.84,3.816,9.043,1.737
				c1.932-1.824,1.774-5.2-0.215-7.959C50.18,76.118,51.887,72.76,50.688,70.169z"/>
		</g>
		<g>
			<path style="fill:#FFFFFF;" d="M43.779,67.656c-0.478-3.319-2.665-5.829-5.294-5.829c-2.693,0-4.919,2.634-5.322,6.074
				c-3.302-1.094-6.645-0.183-7.779,2.269c-1.199,2.591,0.508,5.949,3.824,7.693c-1.701,2.358-2.058,5.166-0.919,7.071l17.479-17.48
				C45.124,67.444,44.457,67.503,43.779,67.656z"/>
		</g>
		<g>
			<circle style="fill:#00B8A5;" cx="38.485" cy="75.312" r="5.394"/>
		</g>
		<g>
			<path style="fill:#00D6C1;" d="M38.485,69.918c-2.979,0-5.395,2.415-5.395,5.394c0,1.343,0.494,2.569,1.307,3.513l7.601-7.6
				C41.055,70.412,39.828,69.918,38.485,69.918z"/>
		</g>
	</g>
</g>
<g id="R-Green" style="display:none;">
	<circle style="display:inline;fill:#77E0C4;" cx="55" cy="55" r="55"/>
	<g style="display:inline;">
		<g>
			<path style="fill:#009687;" d="M83,85c0,1.104-0.896,2-2,2H61c-1.104,0-2-0.896-2-2V41c0-1.104,0.896-2,2-2h20
				c1.104,0,2,0.896,2,2V85z"/>
		</g>
		<g>
			<path style="fill:#00B8A5;" d="M71.001,39H61c-1.104,0-2,0.896-2,2v44c0,1.104,0.896,2,2,2h10.001V39z"/>
		</g>
		<g>
			<path style="fill:#D7FCF9;" d="M62,58.5c0,2.485,2.015,4.5,4.5,4.5c2.485,0,4.5-2.015,4.5-4.5v-10c0-0.828,0.672-1.5,1.5-1.5
				c0.828,0,1.5,0.672,1.5,1.5v4c0,1.381,1.119,2.5,2.5,2.5c1.381,0,2.5-1.119,2.5-2.5V39H61c-1.104,0-2,0.896-2,2v15h3V58.5z"/>
		</g>
		<g>
			<path style="fill:#FFFFFF;" d="M71.001,39H61c-1.104,0-2,0.896-2,2v15h3v2.5c0,2.485,2.015,4.5,4.5,4.5
				c2.485,0,4.5-2.015,4.5-4.5v-10c0-0.002,0.001-0.004,0.001-0.006V39z"/>
		</g>
		<g>
			<path style="fill:#14635B;" d="M43,57c0-1.104,0.896-2,2-2h16c1.104,0,2,0.896,2,2v28c0,1.104-0.896,2-2,2H45
				c-1.104,0-2-0.896-2-2V57z"/>
		</g>
		<g>
			<path style="fill:#3E948B;" d="M53.001,55H45c-1.104,0-2,0.896-2,2v28c0,1.104,0.896,2,2,2h8.001V55z"/>
		</g>
		<g>
			<path style="fill:#D7FCF9;" d="M51,61c0-1.104,0.896-2,2-2s2,0.896,2,2s0.896,2,2,2s2-0.896,2-2v-6H45c-1.104,0-2,0.896-2,2v13h8
				V61z"/>
		</g>
		<g>
			<path style="fill:#FFFFFF;" d="M77.43,33.286c0,3.156-2.559,5.714-5.715,5.714c-3.156,0-5.714-2.558-5.714-5.714
				c0-3.428,4.571-5.714,3.429-10.286C76.286,25.286,77.43,30.13,77.43,33.286z"/>
		</g>
		<g>
			<path style="fill:#00D6C1;" d="M74.572,36.143c0,1.578-1.279,2.857-2.857,2.857c-1.578,0-2.857-1.279-2.857-2.857
				c0-1.714,2.286-2.858,1.715-5.143C74.001,32.143,74.572,34.565,74.572,36.143z"/>
		</g>
		<g>
			<path style="fill:#FFFFFF;" d="M56.001,51c0,2.209-1.791,4-4,4s-4-1.791-4-4c0-2.4,3.2-4,2.399-7.201
				C55.201,45.399,56.001,48.791,56.001,51z"/>
		</g>
		<g>
			<path style="fill:#00D6C1;" d="M54.001,53c0,1.104-0.896,2-2,2s-2-0.896-2-2c0-1.2,1.6-2,1.2-3.6
				C53.601,50.2,54.001,51.896,54.001,53z"/>
		</g>
		<g>
			<path style="fill:#FFFFFF;" d="M53,55h-8c-1.105,0-2,0.896-2,2v14h8V61c0-1.104,0.895-2,2-2l0,0V55z"/>
		</g>
		<g>
			<path style="fill:#D7FCF9;" d="M50.687,70.17c-1.035-2.236-3.906-3.192-6.908-2.514c-0.478-3.319-2.665-5.829-5.294-5.829
				c-2.693,0-4.919,2.634-5.322,6.074c-3.302-1.095-6.645-0.183-7.779,2.269c-1.199,2.59,0.508,5.949,3.824,7.693
				c-1.989,2.759-2.146,6.135-0.215,7.959c2.214,2.089,6.299,1.337,9.042-1.737c2.756,3.087,6.84,3.816,9.043,1.737
				c1.932-1.824,1.774-5.2-0.215-7.959C50.18,76.119,51.887,72.761,50.687,70.17z"/>
		</g>
		<g>
			<path style="fill:#FFFFFF;" d="M43.779,67.657c-0.478-3.319-2.665-5.829-5.294-5.829c-2.693,0-4.919,2.634-5.322,6.074
				c-3.302-1.094-6.645-0.183-7.779,2.269c-1.199,2.591,0.508,5.949,3.824,7.693c-1.701,2.358-2.058,5.166-0.919,7.071l17.479-17.48
				C45.124,67.445,44.457,67.504,43.779,67.657z"/>
		</g>
		<g>
			<circle style="fill:#00B8A5;" cx="38.485" cy="75.313" r="5.394"/>
		</g>
		<g>
			<path style="fill:#00D6C1;" d="M38.485,69.919c-2.979,0-5.395,2.415-5.395,5.394c0,1.343,0.494,2.569,1.307,3.513l7.601-7.6
				C41.055,70.413,39.828,69.919,38.485,69.919z"/>
		</g>
	</g>
</g>
<g id="Red" style="display:none;">
	<g style="display:inline;">
		<g>
			<path style="fill:#C23023;" d="M83,84.999c0,1.104-0.896,2-2,2H61c-1.104,0-2-0.896-2-2v-44c0-1.104,0.896-2,2-2h20
				c1.104,0,2,0.896,2,2V84.999z"/>
		</g>
		<g>
			<path style="fill:#E54B44;" d="M71.001,38.999H61c-1.104,0-2,0.896-2,2v44c0,1.104,0.896,2,2,2h10.001V38.999z"/>
		</g>
		<g>
			<path style="fill:#FFEFED;" d="M62,58.499c0,2.485,2.015,4.5,4.5,4.5s4.5-2.015,4.5-4.5v-10c0-0.828,0.672-1.5,1.5-1.5
				s1.5,0.672,1.5,1.5v4c0,1.381,1.119,2.5,2.5,2.5s2.5-1.119,2.5-2.5v-13.5H61c-1.104,0-2,0.896-2,2v15h3V58.499z"/>
		</g>
		<g>
			<path style="fill:#FFFFFF;" d="M71.001,38.999H61c-1.104,0-2,0.896-2,2v15h3v2.5c0,2.485,2.015,4.5,4.5,4.5s4.5-2.015,4.5-4.5
				v-10c0-0.002,0.001-0.004,0.001-0.006V38.999z"/>
		</g>
		<g>
			<path style="fill:#7D261E;" d="M43,56.999c0-1.104,0.896-2,2-2h16c1.104,0,2,0.896,2,2v28c0,1.104-0.896,2-2,2H45
				c-1.104,0-2-0.896-2-2V56.999z"/>
		</g>
		<g>
			<path style="fill:#B84E44;" d="M53.001,54.999H45c-1.104,0-2,0.896-2,2v28c0,1.104,0.896,2,2,2h8.001V54.999z"/>
		</g>
		<g>
			<path style="fill:#FFEFED;" d="M51,60.999c0-1.104,0.896-2,2-2s2,0.896,2,2s0.896,2,2,2s2-0.896,2-2v-6H45c-1.104,0-2,0.896-2,2
				v13h8V60.999z"/>
		</g>
		<g>
			<path style="fill:#FFFFFF;" d="M77.43,33.285c0,3.156-2.559,5.714-5.715,5.714c-3.156,0-5.714-2.558-5.714-5.714
				c0-3.428,4.571-5.714,3.429-10.286C76.286,25.285,77.43,30.129,77.43,33.285z"/>
		</g>
		<g>
			<path style="fill:#FF6C5E;" d="M74.572,36.142c0,1.578-1.279,2.857-2.858,2.857c-1.578,0-2.857-1.279-2.857-2.857
				c0-1.714,2.286-2.857,1.715-5.143C74.001,32.142,74.572,34.564,74.572,36.142z"/>
		</g>
		<g>
			<path style="fill:#FFFFFF;" d="M56.001,50.999c0,2.209-1.791,4-4,4s-4-1.791-4-4c0-2.4,3.2-4,2.399-7.201
				C55.201,45.398,56.001,48.789,56.001,50.999z"/>
		</g>
		<g>
			<path style="fill:#FF6C5E;" d="M54.001,52.999c0,1.104-0.896,2-2,2s-2-0.896-2-2c0-1.2,1.6-2,1.2-3.6
				C53.601,50.199,54.001,51.894,54.001,52.999z"/>
		</g>
		<g>
			<path style="fill:#FFFFFF;" d="M53,54.999h-8c-1.105,0-2,0.896-2,2v14h8v-10c0-1.104,0.895-2,2-2l0,0V54.999z"/>
		</g>
		<g>
			<path style="fill:#FFEFED;" d="M50.688,70.169c-1.035-2.236-3.906-3.192-6.908-2.514c-0.478-3.319-2.665-5.829-5.294-5.829
				c-2.693,0-4.919,2.634-5.322,6.074c-3.302-1.095-6.645-0.183-7.779,2.269c-1.199,2.59,0.508,5.949,3.824,7.693
				c-1.989,2.759-2.147,6.135-0.215,7.959c2.214,2.089,6.299,1.337,9.042-1.737c2.756,3.087,6.84,3.816,9.043,1.737
				c1.932-1.824,1.774-5.2-0.215-7.959C50.18,76.118,51.887,72.76,50.688,70.169z"/>
		</g>
		<g>
			<path style="fill:#FFFFFF;" d="M43.779,67.656c-0.478-3.319-2.665-5.829-5.294-5.829c-2.693,0-4.919,2.634-5.322,6.074
				c-3.302-1.094-6.645-0.183-7.779,2.269c-1.199,2.591,0.508,5.949,3.824,7.693c-1.701,2.358-2.058,5.166-0.919,7.071l17.48-17.48
				C45.124,67.444,44.457,67.503,43.779,67.656z"/>
		</g>
		<g>
			<circle style="fill:#E54B44;" cx="38.485" cy="75.312" r="5.394"/>
		</g>
		<g>
			<path style="fill:#FF6C5E;" d="M38.485,69.918c-2.979,0-5.395,2.415-5.395,5.394c0,1.343,0.494,2.569,1.307,3.513l7.601-7.6
				C41.055,70.412,39.828,69.918,38.485,69.918z"/>
		</g>
	</g>
</g>
<g id="R-Red" style="display:none;">
	<circle style="display:inline;fill:#FABBAF;" cx="55" cy="55" r="55"/>
	<g style="display:inline;">
		<g>
			<path style="fill:#C23023;" d="M83,85c0,1.104-0.896,2-2,2H61c-1.104,0-2-0.896-2-2V41c0-1.104,0.896-2,2-2h20
				c1.104,0,2,0.896,2,2V85z"/>
		</g>
		<g>
			<path style="fill:#E54B44;" d="M71.001,39H61c-1.104,0-2,0.896-2,2v44c0,1.104,0.896,2,2,2h10.001V39z"/>
		</g>
		<g>
			<path style="fill:#FFEFED;" d="M62,58.5c0,2.485,2.015,4.5,4.5,4.5s4.5-2.015,4.5-4.5v-10c0-0.828,0.672-1.5,1.5-1.5
				s1.5,0.672,1.5,1.5v4c0,1.381,1.119,2.5,2.5,2.5s2.5-1.119,2.5-2.5V39H61c-1.104,0-2,0.896-2,2v15h3V58.5z"/>
		</g>
		<g>
			<path style="fill:#FFFFFF;" d="M71.001,39H61c-1.104,0-2,0.896-2,2v15h3v2.5c0,2.485,2.015,4.5,4.5,4.5s4.5-2.015,4.5-4.5v-10
				c0-0.002,0.001-0.004,0.001-0.006V39z"/>
		</g>
		<g>
			<path style="fill:#7D261E;" d="M43,57c0-1.104,0.896-2,2-2h16c1.104,0,2,0.896,2,2v28c0,1.104-0.896,2-2,2H45
				c-1.104,0-2-0.896-2-2V57z"/>
		</g>
		<g>
			<path style="fill:#B84E44;" d="M53.001,55H45c-1.104,0-2,0.896-2,2v28c0,1.104,0.896,2,2,2h8.001V55z"/>
		</g>
		<g>
			<path style="fill:#FFEFED;" d="M51,61c0-1.104,0.896-2,2-2s2,0.896,2,2c0,1.104,0.896,2,2,2s2-0.896,2-2v-6H45
				c-1.104,0-2,0.896-2,2v13h8V61z"/>
		</g>
		<g>
			<path style="fill:#FFFFFF;" d="M77.43,33.286c0,3.156-2.559,5.714-5.715,5.714c-3.156,0-5.714-2.558-5.714-5.714
				c0-3.428,4.571-5.714,3.429-10.286C76.286,25.286,77.43,30.13,77.43,33.286z"/>
		</g>
		<g>
			<path style="fill:#FF6C5E;" d="M74.572,36.143c0,1.578-1.279,2.857-2.858,2.857c-1.578,0-2.857-1.279-2.857-2.857
				c0-1.714,2.286-2.858,1.715-5.143C74.001,32.143,74.572,34.565,74.572,36.143z"/>
		</g>
		<g>
			<path style="fill:#FFFFFF;" d="M56.001,51c0,2.209-1.791,4-4,4s-4-1.791-4-4c0-2.4,3.2-4,2.399-7.201
				C55.201,45.399,56.001,48.791,56.001,51z"/>
		</g>
		<g>
			<path style="fill:#FF6C5E;" d="M54.001,53c0,1.104-0.896,2-2,2s-2-0.896-2-2c0-1.2,1.6-2,1.2-3.6
				C53.601,50.2,54.001,51.896,54.001,53z"/>
		</g>
		<g>
			<path style="fill:#FFFFFF;" d="M53,55h-8c-1.105,0-2,0.896-2,2v14h8V61c0-1.104,0.895-2,2-2l0,0V55z"/>
		</g>
		<g>
			<path style="fill:#FFEFED;" d="M50.688,70.17c-1.035-2.236-3.906-3.192-6.908-2.514c-0.478-3.319-2.665-5.829-5.294-5.829
				c-2.693,0-4.919,2.634-5.322,6.074c-3.302-1.095-6.645-0.183-7.779,2.269c-1.199,2.59,0.508,5.949,3.824,7.693
				c-1.989,2.759-2.147,6.135-0.215,7.959c2.214,2.089,6.299,1.337,9.042-1.737c2.756,3.087,6.84,3.816,9.043,1.737
				c1.932-1.824,1.774-5.2-0.215-7.959C50.18,76.119,51.887,72.761,50.688,70.17z"/>
		</g>
		<g>
			<path style="fill:#FFFFFF;" d="M43.779,67.657c-0.478-3.319-2.665-5.829-5.294-5.829c-2.693,0-4.919,2.634-5.322,6.074
				c-3.302-1.094-6.645-0.183-7.779,2.269c-1.199,2.591,0.508,5.949,3.824,7.693c-1.701,2.358-2.058,5.166-0.919,7.071l17.48-17.48
				C45.124,67.445,44.457,67.504,43.779,67.657z"/>
		</g>
		<g>
			<circle style="fill:#E54B44;" cx="38.485" cy="75.313" r="5.394"/>
		</g>
		<g>
			<path style="fill:#FF6C5E;" d="M38.485,69.919c-2.979,0-5.395,2.415-5.395,5.394c0,1.343,0.494,2.569,1.307,3.513l7.601-7.6
				C41.055,70.413,39.828,69.919,38.485,69.919z"/>
		</g>
	</g>
</g>
<g id="Yellow" style="display:none;">
	<g style="display:inline;">
		<g>
			<path style="fill:#E07000;" d="M83,85c0,1.104-0.896,2-2,2H61c-1.104,0-2-0.896-2-2V41c0-1.104,0.896-2,2-2h20
				c1.104,0,2,0.896,2,2V85z"/>
		</g>
		<g>
			<path style="fill:#FA9200;" d="M71.001,39H61c-1.104,0-2,0.896-2,2v44c0,1.104,0.896,2,2,2h10.001V39z"/>
		</g>
		<g>
			<path style="fill:#FFF5D9;" d="M62,58.5c0,2.485,2.015,4.5,4.5,4.5s4.5-2.015,4.5-4.5v-10c0-0.828,0.672-1.5,1.5-1.5
				s1.5,0.672,1.5,1.5v4c0,1.381,1.119,2.5,2.5,2.5s2.5-1.119,2.5-2.5V39H61c-1.104,0-2,0.896-2,2v15h3V58.5z"/>
		</g>
		<g>
			<path style="fill:#FFFFFF;" d="M71.001,39H61c-1.104,0-2,0.896-2,2v15h3v2.5c0,2.485,2.015,4.5,4.5,4.5s4.5-2.015,4.5-4.5v-10
				c0-0.002,0.001-0.004,0.001-0.006V39z"/>
		</g>
		<g>
			<path style="fill:#66510D;" d="M43,57c0-1.104,0.896-2,2-2h16c1.104,0,2,0.896,2,2v28c0,1.104-0.896,2-2,2H45
				c-1.104,0-2-0.896-2-2V57z"/>
		</g>
		<g>
			<path style="fill:#947615;" d="M53.001,55H45c-1.104,0-2,0.896-2,2v28c0,1.104,0.896,2,2,2h8.001V55z"/>
		</g>
		<g>
			<path style="fill:#FFF5D9;" d="M51,61c0-1.104,0.896-2,2-2s2,0.896,2,2s0.896,2,2,2s2-0.896,2-2v-6H45c-1.104,0-2,0.896-2,2v13h8
				V61z"/>
		</g>
		<g>
			<path style="fill:#FFFFFF;" d="M77.43,33.286c0,3.156-2.559,5.714-5.715,5.714c-3.156,0-5.714-2.558-5.714-5.714
				c0-3.428,4.571-5.714,3.429-10.286C76.286,25.286,77.43,30.13,77.43,33.286z"/>
		</g>
		<g>
			<path style="fill:#FFAA00;" d="M74.572,36.143c0,1.578-1.279,2.857-2.858,2.857c-1.578,0-2.857-1.279-2.857-2.857
				c0-1.714,2.286-2.858,1.715-5.143C74.001,32.143,74.572,34.565,74.572,36.143z"/>
		</g>
		<g>
			<path style="fill:#FFFFFF;" d="M56.001,51c0,2.209-1.791,4-4,4s-4-1.791-4-4c0-2.4,3.2-4,2.399-7.201
				C55.201,45.399,56.001,48.791,56.001,51z"/>
		</g>
		<g>
			<path style="fill:#FFAA00;" d="M54.001,53c0,1.104-0.896,2-2,2s-2-0.896-2-2c0-1.2,1.6-2,1.2-3.6
				C53.601,50.2,54.001,51.896,54.001,53z"/>
		</g>
		<g>
			<path style="fill:#FFFFFF;" d="M53,55h-8c-1.105,0-2,0.896-2,2v14h8V61c0-1.104,0.895-2,2-2l0,0V55z"/>
		</g>
		<g>
			<path style="fill:#FFF5D9;" d="M50.688,70.17c-1.035-2.236-3.906-3.192-6.908-2.514c-0.478-3.319-2.665-5.829-5.294-5.829
				c-2.693,0-4.919,2.634-5.322,6.074c-3.302-1.095-6.645-0.183-7.779,2.269c-1.199,2.59,0.508,5.949,3.824,7.693
				c-1.989,2.759-2.146,6.135-0.215,7.958c2.214,2.089,6.299,1.337,9.042-1.737c2.756,3.087,6.84,3.816,9.043,1.737
				c1.932-1.824,1.774-5.2-0.215-7.958C50.18,76.119,51.887,72.761,50.688,70.17z"/>
		</g>
		<g>
			<path style="fill:#FFFFFF;" d="M43.779,67.657c-0.478-3.319-2.665-5.829-5.294-5.829c-2.693,0-4.919,2.634-5.322,6.074
				c-3.302-1.094-6.645-0.183-7.779,2.269c-1.199,2.591,0.508,5.949,3.824,7.693c-1.701,2.358-2.058,5.166-0.919,7.071l17.479-17.48
				C45.124,67.445,44.457,67.504,43.779,67.657z"/>
		</g>
		<g>
			<circle style="fill:#FA9200;" cx="38.485" cy="75.313" r="5.394"/>
		</g>
		<g>
			<path style="fill:#FFAA00;" d="M38.485,69.919c-2.979,0-5.395,2.415-5.395,5.394c0,1.343,0.494,2.569,1.307,3.513l7.601-7.6
				C41.055,70.413,39.828,69.919,38.485,69.919z"/>
		</g>
	</g>
</g>
<g id="R-Yellow" style="display:none;">
	<circle style="display:inline;fill:#FFD75E;" cx="54.853" cy="54.764" r="55"/>
	<g style="display:inline;">
		<g>
			<path style="fill:#E07000;" d="M82.853,84.764c0,1.104-0.896,2-2,2h-20c-1.104,0-2-0.896-2-2v-44c0-1.104,0.896-2,2-2h20
				c1.104,0,2,0.896,2,2V84.764z"/>
		</g>
		<g>
			<path style="fill:#FA9200;" d="M70.854,38.764H60.853c-1.104,0-2,0.896-2,2v44c0,1.104,0.896,2,2,2h10.001V38.764z"/>
		</g>
		<g>
			<path style="fill:#FFF5D9;" d="M61.853,58.264c0,2.485,2.015,4.5,4.5,4.5c2.485,0,4.5-2.015,4.5-4.5v-10
				c0-0.828,0.672-1.5,1.5-1.5s1.5,0.672,1.5,1.5v4c0,1.381,1.119,2.5,2.5,2.5s2.5-1.119,2.5-2.5v-13.5h-18c-1.104,0-2,0.896-2,2v15
				h3V58.264z"/>
		</g>
		<g>
			<path style="fill:#FFFFFF;" d="M70.854,38.764H60.853c-1.104,0-2,0.896-2,2v15h3v2.5c0,2.485,2.015,4.5,4.5,4.5
				c2.485,0,4.5-2.015,4.5-4.5v-10c0-0.002,0.001-0.004,0.001-0.006V38.764z"/>
		</g>
		<g>
			<path style="fill:#66510D;" d="M42.853,56.764c0-1.104,0.896-2,2-2h16c1.104,0,2,0.896,2,2v28c0,1.104-0.896,2-2,2h-16
				c-1.104,0-2-0.896-2-2V56.764z"/>
		</g>
		<g>
			<path style="fill:#947615;" d="M52.854,54.764h-8.001c-1.104,0-2,0.896-2,2v28c0,1.104,0.896,2,2,2h8.001V54.764z"/>
		</g>
		<g>
			<path style="fill:#FFF5D9;" d="M50.853,60.764c0-1.104,0.896-2,2-2s2,0.896,2,2s0.896,2,2,2s2-0.896,2-2v-6h-14
				c-1.104,0-2,0.896-2,2v13h8V60.764z"/>
		</g>
		<g>
			<path style="fill:#FFFFFF;" d="M77.282,33.049c0,3.156-2.559,5.714-5.715,5.714c-3.156,0-5.714-2.558-5.714-5.714
				c0-3.428,4.571-5.714,3.429-10.286C76.139,25.049,77.282,29.894,77.282,33.049z"/>
		</g>
		<g>
			<path style="fill:#FFAA00;" d="M74.425,35.907c0,1.578-1.279,2.857-2.858,2.857c-1.578,0-2.857-1.279-2.857-2.857
				c0-1.714,2.286-2.857,1.715-5.143C73.854,31.907,74.425,34.329,74.425,35.907z"/>
		</g>
		<g>
			<path style="fill:#FFFFFF;" d="M55.854,50.764c0,2.209-1.791,4-4,4s-4-1.791-4-4c0-2.4,3.2-4,2.399-7.201
				C55.054,45.163,55.854,48.554,55.854,50.764z"/>
		</g>
		<g>
			<path style="fill:#FFAA00;" d="M53.854,52.764c0,1.104-0.896,2-2,2s-2-0.896-2-2c0-1.2,1.6-2,1.2-3.6
				C53.453,49.963,53.854,51.659,53.854,52.764z"/>
		</g>
		<g>
			<path style="fill:#FFFFFF;" d="M52.853,54.764h-8c-1.105,0-2,0.896-2,2v14h8v-10c0-1.104,0.895-2,2-2l0,0V54.764z"/>
		</g>
		<g>
			<path style="fill:#FFF5D9;" d="M50.54,69.934c-1.035-2.236-3.906-3.192-6.908-2.514c-0.478-3.319-2.665-5.829-5.294-5.829
				c-2.693,0-4.919,2.634-5.322,6.074c-3.302-1.095-6.645-0.183-7.779,2.268c-1.199,2.59,0.508,5.949,3.824,7.693
				c-1.989,2.759-2.146,6.135-0.215,7.959c2.214,2.089,6.299,1.337,9.042-1.737c2.756,3.087,6.84,3.816,9.043,1.737
				c1.932-1.824,1.774-5.2-0.215-7.959C50.032,75.883,51.739,72.524,50.54,69.934z"/>
		</g>
		<g>
			<path style="fill:#FFFFFF;" d="M43.632,67.42c-0.478-3.319-2.665-5.829-5.294-5.829c-2.693,0-4.919,2.634-5.322,6.074
				c-3.302-1.094-6.645-0.183-7.779,2.268c-1.199,2.591,0.508,5.949,3.824,7.693c-1.701,2.358-2.058,5.166-0.919,7.071l17.479-17.48
				C44.977,67.209,44.31,67.268,43.632,67.42z"/>
		</g>
		<g>
			<circle style="fill:#FA9200;" cx="38.337" cy="75.077" r="5.394"/>
		</g>
		<g>
			<path style="fill:#FFAA00;" d="M38.338,69.683c-2.979,0-5.395,2.415-5.395,5.394c0,1.343,0.494,2.569,1.307,3.513l7.601-7.6
				C40.907,70.177,39.681,69.683,38.338,69.683z"/>
		</g>
	</g>
</g>
</svg>
