<?xml version="1.0" encoding="iso-8859-1"?>
<!-- Generator: Adobe Illustrator 17.1.0, SVG Export Plug-In . SVG Version: 6.00 Build 0)  -->
<!DOCTYPE svg PUBLIC "-//W3C//DTD SVG 1.0//EN" "http://www.w3.org/TR/2001/REC-SVG-20010904/DTD/svg10.dtd">
<svg version="1.0" xmlns="http://www.w3.org/2000/svg" xmlns:xlink="http://www.w3.org/1999/xlink" x="0px" y="0px" width="110px"
	 height="110px" viewBox="0 0 110 110" style="enable-background:new 0 0 110 110;" xml:space="preserve">
<g id="Artboard" style="display:none;">
	
		<rect x="-696.5" y="-174.5" style="display:inline;fill:#808080;stroke:#000000;stroke-miterlimit:10;" width="1385" height="491"/>
</g>
<g id="R-Multicolor" style="display:none;">
	<circle style="display:inline;fill:#FABC3D;" cx="55" cy="55" r="55"/>
	<g style="display:inline;">
		<g>
			<path style="fill:#FFFFFF;" d="M55,23c-12,0-31.695,14.003-32,30c-0.219,11.479,4,22,32,22c26,0,32-11.57,32-22
				C87,37,67,23,55,23z"/>
		</g>
		<g>
			<ellipse style="fill:#F0F1F1;" cx="55" cy="83" rx="20" ry="4"/>
		</g>
		<g>
			<path style="fill:#CFD3D4;" d="M51,75h8v7c-2.667,1.333-5.333,1.333-8,0V75z"/>
		</g>
		<g>
			<path style="fill:#CFD3D4;" d="M55,29c-9,0-24,11-24,22s9,12,9,12h15h15c0,0,9-1,9-12S64,29,55,29z"/>
		</g>
		<g>
			<path style="fill:#F37A10;" d="M55,51c-9.705,0-18.211,2.277-22.97,5.693C34.391,62.372,40,63,40,63h15h15
				c0,0,5.609-0.628,7.97-6.307C73.211,53.277,64.705,51,55,51z"/>
		</g>
		<g>
			<path style="fill:#FFFFFF;" d="M35,83c0,2.209,8.954,4,20,4v-8C43.954,79,35,80.791,35,83z"/>
		</g>
		<g>
			<path style="fill:#F0F1F1;" d="M51,75v7c1.333,0.667,2.667,1,4,1v-8H51z"/>
		</g>
	</g>
</g>
<g id="Multicolor">
	<g>
		<g>
			<path style="fill:#FFFFFF;" d="M55,23c-12,0-31.695,14.003-32,30c-0.219,11.479,4,22,32,22c26,0,32-11.57,32-22
				C87,37,67,23,55,23z"/>
		</g>
		<g>
			<ellipse style="fill:#F0F1F1;" cx="55" cy="83" rx="20" ry="4"/>
		</g>
		<g>
			<path style="fill:#CFD3D4;" d="M51,75h8v7c-2.667,1.333-5.333,1.333-8,0V75z"/>
		</g>
		<g>
			<path style="fill:#CFD3D4;" d="M55,29c-9,0-24,11-24,22s9,12,9,12h15h15c0,0,9-1,9-12S64,29,55,29z"/>
		</g>
		<g>
			<path style="fill:#F37A10;" d="M55,51c-9.705,0-18.211,2.277-22.97,5.693C34.391,62.372,40,63,40,63h15h15
				c0,0,5.609-0.628,7.97-6.307C73.211,53.277,64.705,51,55,51z"/>
		</g>
		<g>
			<path style="fill:#FFFFFF;" d="M35,83c0,2.209,8.954,4,20,4v-8C43.954,79,35,80.791,35,83z"/>
		</g>
		<g>
			<path style="fill:#F0F1F1;" d="M51,75v7c1.333,0.667,2.667,1,4,1v-8H51z"/>
		</g>
	</g>
</g>
<g id="Blue" style="display:none;">
	<g style="display:inline;">
		<g>
			<path style="fill:#FFFFFF;" d="M55,23c-12,0-31.695,14.003-32,30c-0.219,11.479,4,22,32,22c26,0,32-11.569,32-22
				C87,37,67,23,55,23z"/>
		</g>
		<g>
			<ellipse style="fill:#E1F5FA;" cx="55" cy="83" rx="20" ry="4"/>
		</g>
		<g>
			<path style="fill:#BBE7F2;" d="M51,75h8v7c-2.667,1.333-5.333,1.333-8,0V75z"/>
		</g>
		<g>
			<path style="fill:#BBE7F2;" d="M55,29c-9,0-24,11-24,22s9,12,9,12h15h15c0,0,9-1,9-12S64,29,55,29z"/>
		</g>
		<g>
			<path style="fill:#00B7E5;" d="M55,51c-9.705,0-18.211,2.277-22.97,5.693C34.392,62.372,40,63,40,63h15h15
				c0,0,5.608-0.628,7.97-6.307C73.211,53.277,64.705,51,55,51z"/>
		</g>
		<g>
			<path style="fill:#FFFFFF;" d="M35,83c0,2.209,8.954,4,20,4v-8C43.954,79,35,80.791,35,83z"/>
		</g>
		<g>
			<path style="fill:#E1F5FA;" d="M51,75v7c1.333,0.667,2.667,1,4,1v-8H51z"/>
		</g>
	</g>
</g>
<g id="R-Blue" style="display:none;">
	<circle style="display:inline;fill:#81D2EB;" cx="55" cy="55" r="55"/>
	<g style="display:inline;">
		<g>
			<path style="fill:#FFFFFF;" d="M55,23c-12,0-31.695,14.003-32,30c-0.219,11.479,4,22,32,22c26,0,32-11.569,32-22
				C87,37,67,23,55,23z"/>
		</g>
		<g>
			<ellipse style="fill:#E1F5FA;" cx="55" cy="83" rx="20" ry="4"/>
		</g>
		<g>
			<path style="fill:#BBE7F2;" d="M51,75h8v7c-2.667,1.333-5.333,1.333-8,0V75z"/>
		</g>
		<g>
			<path style="fill:#BBE7F2;" d="M55,29c-9,0-24,11-24,22s9,12,9,12h15h15c0,0,9-1,9-12S64,29,55,29z"/>
		</g>
		<g>
			<path style="fill:#00B7E5;" d="M55,51c-9.705,0-18.211,2.277-22.97,5.693C34.392,62.372,40,63,40,63h15h15
				c0,0,5.608-0.628,7.97-6.307C73.211,53.277,64.705,51,55,51z"/>
		</g>
		<g>
			<path style="fill:#FFFFFF;" d="M35,83c0,2.209,8.954,4,20,4v-8C43.954,79,35,80.791,35,83z"/>
		</g>
		<g>
			<path style="fill:#E1F5FA;" d="M51,75v7c1.333,0.667,2.667,1,4,1v-8H51z"/>
		</g>
	</g>
</g>
<g id="Green" style="display:none;">
	<g style="display:inline;">
		<g>
			<path style="fill:#FFFFFF;" d="M55,23c-12,0-31.695,14.003-32,30c-0.219,11.479,4,22,32,22c26,0,32-11.569,32-22
				C87,37,67,23,55,23z"/>
		</g>
		<g>
			<ellipse style="fill:#D7FCF9;" cx="55" cy="83" rx="20" ry="4"/>
		</g>
		<g>
			<path style="fill:#AAF0E9;" d="M51,75h8v7c-2.667,1.333-5.333,1.333-8,0V75z"/>
		</g>
		<g>
			<path style="fill:#AAF0E9;" d="M55,29c-9,0-24,11-24,22s9,12,9,12h15h15c0,0,9-1,9-12S64,29,55,29z"/>
		</g>
		<g>
			<path style="fill:#00D6C1;" d="M55,51c-9.705,0-18.211,2.277-22.97,5.693C34.392,62.372,40,63,40,63h15h15
				c0,0,5.608-0.628,7.97-6.307C73.211,53.277,64.705,51,55,51z"/>
		</g>
		<g>
			<path style="fill:#FFFFFF;" d="M35,83c0,2.209,8.954,4,20,4v-8C43.954,79,35,80.791,35,83z"/>
		</g>
		<g>
			<path style="fill:#D7FCF9;" d="M51,75v7c1.333,0.667,2.667,1,4,1v-8H51z"/>
		</g>
	</g>
</g>
<g id="R-Green" style="display:none;">
	<circle style="display:inline;fill:#77E0C4;" cx="55" cy="55" r="55"/>
	<g style="display:inline;">
		<g>
			<path style="fill:#FFFFFF;" d="M55,23c-12,0-31.695,14.003-32,30c-0.219,11.479,4,22,32,22c26,0,32-11.569,32-22
				C87,37,67,23,55,23z"/>
		</g>
		<g>
			<ellipse style="fill:#D7FCF9;" cx="55" cy="83" rx="20" ry="4"/>
		</g>
		<g>
			<path style="fill:#AAF0E9;" d="M51,75h8v7c-2.667,1.333-5.333,1.333-8,0V75z"/>
		</g>
		<g>
			<path style="fill:#AAF0E9;" d="M55,29c-9,0-24,11-24,22s9,12,9,12h15h15c0,0,9-1,9-12S64,29,55,29z"/>
		</g>
		<g>
			<path style="fill:#00D6C1;" d="M55,51c-9.705,0-18.211,2.277-22.97,5.693C34.392,62.372,40,63,40,63h15h15
				c0,0,5.608-0.628,7.97-6.307C73.211,53.277,64.705,51,55,51z"/>
		</g>
		<g>
			<path style="fill:#FFFFFF;" d="M35,83c0,2.209,8.954,4,20,4v-8C43.954,79,35,80.791,35,83z"/>
		</g>
		<g>
			<path style="fill:#D7FCF9;" d="M51,75v7c1.333,0.667,2.667,1,4,1v-8H51z"/>
		</g>
	</g>
</g>
<g id="Red" style="display:none;">
	<g style="display:inline;">
		<g>
			<path style="fill:#FFFFFF;" d="M55,23c-12,0-31.695,14.003-32,30c-0.219,11.479,4,22,32,22c26,0,32-11.569,32-22
				C87,37,67,23,55,23z"/>
		</g>
		<g>
			<ellipse style="fill:#FFEFED;" cx="55" cy="83" rx="20" ry="4"/>
		</g>
		<g>
			<path style="fill:#FFD7D4;" d="M51,75h8v7c-2.667,1.333-5.333,1.333-8,0V75z"/>
		</g>
		<g>
			<path style="fill:#FFD7D4;" d="M55,29c-9,0-24,11-24,22s9,12,9,12h15h15c0,0,9-1,9-12S64,29,55,29z"/>
		</g>
		<g>
			<path style="fill:#FF6C5E;" d="M55,51c-9.705,0-18.211,2.277-22.97,5.693C34.392,62.372,40,63,40,63h15h15
				c0,0,5.608-0.628,7.97-6.307C73.211,53.277,64.705,51,55,51z"/>
		</g>
		<g>
			<path style="fill:#FFFFFF;" d="M35,83c0,2.209,8.954,4,20,4v-8C43.954,79,35,80.791,35,83z"/>
		</g>
		<g>
			<path style="fill:#FFEFED;" d="M51,75v7c1.333,0.667,2.667,1,4,1v-8H51z"/>
		</g>
	</g>
</g>
<g id="R-Red" style="display:none;">
	<circle style="display:inline;fill:#FABBAF;" cx="55" cy="55" r="55"/>
	<g style="display:inline;">
		<g>
			<path style="fill:#FFFFFF;" d="M55,23c-12,0-31.695,14.003-32,30c-0.219,11.479,4,22,32,22c26,0,32-11.569,32-22
				C87,37,67,23,55,23z"/>
		</g>
		<g>
			<ellipse style="fill:#FFEFED;" cx="55" cy="83" rx="20" ry="4"/>
		</g>
		<g>
			<path style="fill:#FFD7D4;" d="M51,75h8v7c-2.667,1.333-5.333,1.333-8,0V75z"/>
		</g>
		<g>
			<path style="fill:#FFD7D4;" d="M55,29c-9,0-24,11-24,22s9,12,9,12h15h15c0,0,9-1,9-12S64,29,55,29z"/>
		</g>
		<g>
			<path style="fill:#FF6C5E;" d="M55,51c-9.705,0-18.211,2.277-22.97,5.693C34.392,62.372,40,63,40,63h15h15
				c0,0,5.608-0.628,7.97-6.307C73.211,53.277,64.705,51,55,51z"/>
		</g>
		<g>
			<path style="fill:#FFFFFF;" d="M35,83c0,2.209,8.954,4,20,4v-8C43.954,79,35,80.791,35,83z"/>
		</g>
		<g>
			<path style="fill:#FFEFED;" d="M51,75v7c1.333,0.667,2.667,1,4,1v-8H51z"/>
		</g>
	</g>
</g>
<g id="Yellow" style="display:none;">
	<g style="display:inline;">
		<g>
			<path style="fill:#FFFFFF;" d="M55,23c-12,0-31.695,14.003-32,30c-0.219,11.479,4,22,32,22c26,0,32-11.569,32-22
				C87,37,67,23,55,23z"/>
		</g>
		<g>
			<ellipse style="fill:#FFF5D9;" cx="55" cy="83" rx="20" ry="4"/>
		</g>
		<g>
			<path style="fill:#FFE9A1;" d="M51,75h8v7c-2.667,1.333-5.333,1.333-8,0V75z"/>
		</g>
		<g>
			<path style="fill:#FFE9A1;" d="M55,29c-9,0-24,11-24,22s9,12,9,12h15h15c0,0,9-1,9-12S64,29,55,29z"/>
		</g>
		<g>
			<path style="fill:#FFAA00;" d="M55,51c-9.705,0-18.211,2.277-22.97,5.693C34.392,62.372,40,63,40,63h15h15
				c0,0,5.608-0.628,7.97-6.307C73.211,53.277,64.705,51,55,51z"/>
		</g>
		<g>
			<path style="fill:#FFFFFF;" d="M35,83c0,2.209,8.954,4,20,4v-8C43.954,79,35,80.791,35,83z"/>
		</g>
		<g>
			<path style="fill:#FFF5D9;" d="M51,75v7c1.333,0.667,2.667,1,4,1v-8H51z"/>
		</g>
	</g>
</g>
<g id="R-Yellow" style="display:none;">
	<circle style="display:inline;fill:#FFD75E;" cx="55" cy="55" r="55"/>
	<g style="display:inline;">
		<g>
			<path style="fill:#FFFFFF;" d="M55,23c-12,0-31.695,14.003-32,30c-0.219,11.479,4,22,32,22c26,0,32-11.569,32-22
				C87,37,67,23,55,23z"/>
		</g>
		<g>
			<ellipse style="fill:#FFF5D9;" cx="55" cy="83" rx="20" ry="4"/>
		</g>
		<g>
			<path style="fill:#FFE9A1;" d="M51,75h8v7c-2.667,1.333-5.333,1.333-8,0V75z"/>
		</g>
		<g>
			<path style="fill:#FFE9A1;" d="M55,29c-9,0-24,11-24,22s9,12,9,12h15h15c0,0,9-1,9-12S64,29,55,29z"/>
		</g>
		<g>
			<path style="fill:#FFAA00;" d="M55,51c-9.705,0-18.211,2.277-22.97,5.693C34.392,62.372,40,63,40,63h15h15
				c0,0,5.608-0.628,7.97-6.307C73.211,53.277,64.705,51,55,51z"/>
		</g>
		<g>
			<path style="fill:#FFFFFF;" d="M35,83c0,2.209,8.954,4,20,4v-8C43.954,79,35,80.791,35,83z"/>
		</g>
		<g>
			<path style="fill:#FFF5D9;" d="M51,75v7c1.333,0.667,2.667,1,4,1v-8H51z"/>
		</g>
	</g>
</g>
</svg>
